<svg xmlns="http://www.w3.org/2000/svg"
     fill="none"
     viewBox="0 0 48 48"
     id="Pause--Streamline-Ionic-Filled"
     height="48"
     width="48">
    <path fill="#000000"
          d="M17.586 47.52h-6.4145c-0.567 0 -1.111 -0.2254 -1.512 -0.6263 -0.4008 -0.401 -0.6262 -0.9448 -0.6262 -1.5119V2.6182c0 -0.5671 0.2254 -1.1109 0.6262 -1.5119 0.401 -0.401 0.945 -0.6263 1.512 -0.6263h6.4145c0.5671 0 1.111 0.2253 1.512 0.6263 0.4009 0.401 0.6262 0.9448 0.6262 1.5119v42.7636c0 0.567 -0.2253 1.1109 -0.6262 1.5119 -0.401 0.4009 -0.9449 0.6263 -1.512 0.6263Z"
          stroke-width="1">
    </path>
    <path fill="#000000"
          d="M36.8285 47.52H30.414c-0.5671 0 -1.1109 -0.2254 -1.512 -0.6263 -0.4009 -0.401 -0.6262 -0.9448 -0.6262 -1.5119V2.6182c0 -0.5671 0.2253 -1.1109 0.6262 -1.5119 0.4011 -0.401 0.9449 -0.6263 1.512 -0.6263h6.4145c0.567 0 1.111 0.2253 1.512 0.6263 0.401 0.401 0.6262 0.9448 0.6262 1.5119v42.7636c0 0.567 -0.2252 1.1109 -0.6262 1.5119s-0.945 0.6263 -1.512 0.6263Z"
          stroke-width="1">
    </path>
</svg>