<svg xmlns="http://www.w3.org/2000/svg" fill="none" viewBox="0 0 48 48" id="Play-Forward--Streamline-Ionic-Filled"
     height="48" width="48">
    <path fill="#fff"
            d="M45.1196 21.5131 27.4132 10.9195c-0.438 -0.2666 -0.9396 -0.4106 -1.4523 -0.4169 -0.5127 -0.0065 -1.0178 0.1248 -1.4623 0.3803 -0.4824 0.281 -0.8819 0.6845 -1.1579 1.1697 -0.2759 0.4852 -0.4186 1.0349 -0.4133 1.5931v7.4108L5.98505 10.9166c-0.43804 -0.2665 -0.93962 -0.4105 -1.45233 -0.4169 -0.5127 -0.0064 -1.01774 0.1249 -1.46232 0.3804 -0.4824 0.2809 -0.88186 0.6844 -1.15782 1.1697 -0.27597 0.4852 -0.4186 1.0349 -0.41341 1.5931v20.7184c-0.00535 0.5584 0.1372 1.1082 0.41318 1.5937 0.27597 0.4854 0.67551 0.8891 1.15805 1.17 0.44458 0.2555 0.94962 0.3869 1.46232 0.3805 0.51271 -0.0065 1.01429 -0.1505 1.45233 -0.417L22.9274 26.9439v7.4137c-0.0061 0.559 0.1362 1.1096 0.4122 1.5958 0.276 0.4861 0.6759 0.8904 1.159 1.1716 0.4445 0.2555 0.9496 0.3869 1.4623 0.3805 0.5127 -0.0065 1.0143 -0.1505 1.4523 -0.417l17.7064 -10.5936c0.4209 -0.2637 0.7679 -0.63 1.0084 -1.0645 0.2406 -0.4346 0.3669 -0.9232 0.3669 -1.4199 0 -0.4967 -0.1263 -0.9852 -0.3669 -1.4197 -0.2405 -0.4346 -0.5875 -0.8009 -1.0084 -1.0646v-0.0131Z"
            stroke-width="1">
    </path>
</svg>