<svg xmlns="http://www.w3.org/2000/svg" 
     fill="none" 
     viewBox="0 0 48 48" 
     id="Play--Streamline-Ionic-Filled" 
     height="48"
     width="48">
    <path fill="#272727"
          d="M8.2751 47.52c-0.7848 -0.0015 -1.5557 -0.2071 -2.2369 -0.5969 -1.5338 -0.8693 -2.4874 -2.5566 -2.4874 -4.3883V5.4655c0 -1.8369 0.9536 -3.5191 2.4874 -4.3883 0.6974 -0.4008 1.4897 -0.607 2.2942 -0.5968 0.8042 0.0101 1.5911 0.2361 2.2781 0.6543l31.6817 18.9642c0.6602 0.414 1.2046 0.9889 1.5817 1.6708 0.3775 0.682 0.5753 1.4485 0.5753 2.2279 0 0.7794 -0.1978 1.5459 -0.5753 2.2277 -0.3771 0.682 -0.9215 1.257 -1.5817 1.6709L10.6055 46.8655c-0.7032 0.4252 -1.5086 0.6514 -2.3304 0.6545Z"
          stroke-width="1">
    </path>
</svg>